Coordinates
version=1
nRows=17
nColumns=40
inDegrees=yes

Units are S.I. units (second, meters, Newtons, ...)
Angles are in degrees.

endheader
time	pelvis_tilt	pelvis_list	pelvis_rotation	pelvis_tx	pelvis_ty	pelvis_tz	hip_flexion_r	hip_adduction_r	hip_rotation_r	knee_angle_r	knee_angle_r_beta	ankle_angle_r	subtalar_angle_r	mtp_angle_r	hip_flexion_l	hip_adduction_l	hip_rotation_l	knee_angle_l	knee_angle_l_beta	ankle_angle_l	subtalar_angle_l	mtp_angle_l	lumbar_extension	lumbar_bending	lumbar_rotation	arm_flex_r	arm_add_r	arm_rot_r	elbow_flex_r	pro_sup_r	wrist_flex_r	wrist_dev_r	arm_flex_l	arm_add_l	arm_rot_l	elbow_flex_l	pro_sup_l	wrist_flex_l	wrist_dev_l
     59.20114286	     -5.24198714	     -1.72779299	     -3.16739341	      0.98575649	      0.92071438	      0.46000009	     31.47598977	     -6.15521367	    -11.26660535	     21.21056186	     21.21056186	      3.31995813	     -0.27087577	      4.53478313	      2.37765439	     -3.84023226	    -11.98488002	     13.10893938	     13.10893938	     16.14474024	     -7.36815211	     -9.13912964	    -10.18346084	      3.29987980	      3.54321870	     -9.00982709	    -15.77986835	    -11.87604698	     18.37511983	     47.60740826	      0.00000000	      0.00000000	     30.28824666	    -22.40660780	      4.87324058	     80.89616330	     47.06965247	      0.00000000	      0.00000000
     59.21228571	     -5.26393153	     -1.73832595	     -3.07315413	      0.98813902	      0.91882748	      0.46228507	     30.43880251	     -5.81580850	    -12.34574359	     18.98859961	     18.98859961	      3.23735786	      1.50527076	      5.26186532	      1.64715725	     -3.96097216	    -11.86363203	     13.05679787	     13.05679787	     16.76336395	     -7.28131873	     -8.88611030	    -10.05948320	      3.30159155	      3.74071285	    -11.08665772	    -15.73832510	    -12.11382435	     18.26642666	     47.61057912	      0.00000000	      0.00000000	     30.78638705	    -22.51768536	      4.65302189	     83.17981317	     47.14135265	      0.00000000	      0.00000000
     59.22342857	     -5.34268052	     -1.66658419	     -2.98540671	      0.99055414	      0.91680766	      0.46471803	     29.80418127	     -5.65340676	    -13.35471110	     17.78377853	     17.78377853	      3.10066554	      3.16696033	      5.52365645	      1.08132115	     -4.03154612	    -11.75197048	     13.24905020	     13.24905020	     17.84834393	     -6.95915517	     -7.50750280	     -9.89419383	      3.17554359	      3.56494905	    -13.39332366	    -15.63702587	    -12.73256405	     20.02120936	     47.54751924	      0.00000000	      0.00000000	     30.57312723	    -23.21068269	      4.16829206	     86.67201101	     47.27828032	      0.00000000	      0.00000000
     59.23457143	     -5.42724520	     -1.86087587	     -2.89720077	      0.99286891	      0.91498997	      0.46749985	     29.19832730	     -5.13888774	    -13.83874984	     16.96676869	     16.96676869	      2.61982856	      3.76144594	      5.32042392	      0.63482426	     -4.43711994	    -11.52369666	     13.62492680	     13.62492680	     18.49780950	     -7.14350595	     -7.00310788	     -9.70008934	      3.35106236	      3.76864137	    -15.23252586	    -15.50727215	    -12.84641360	     20.05873774	     47.52717717	      0.00000000	      0.00000000	     30.96168933	    -23.15429506	      3.80401495	     88.40640038	     47.35241860	      0.00000000	      0.00000000
     59.24571429	     -5.54587097	     -2.00563071	     -2.82784657	      0.99503433	      0.91322869	      0.47035340	     28.94037848	     -4.78466371	    -14.13204083	     16.99583626	     16.99583626	      2.00005841	      4.05990072	      4.09748701	      0.35849802	     -4.81306499	    -11.25372045	     14.24173742	     14.24173742	     19.29022290	     -7.39663012	     -5.97409521	     -9.53448487	      3.47697201	      3.95658379	    -17.07464278	    -15.29902287	    -13.01960953	     20.76059950	     47.47554104	      0.00000000	      0.00000000	     31.04021800	    -23.17615102	      3.36992040	     90.77536387	     47.44650170	      0.00000000	      0.00000000
     59.25685714	     -5.57589814	     -2.20052813	     -2.80329949	      0.99721260	      0.91182812	      0.47354070	     28.63191594	     -4.33426368	    -14.05329209	     17.27529924	     17.27529924	      0.63244631	      3.43272273	      0.16053429	      0.07804287	     -5.28778451	    -11.04751026	     15.11471130	     15.11471130	     20.68999759	     -7.31175945	     -3.42532745	     -9.51000965	      3.62052001	      3.57020244	    -18.91201971	    -15.25494917	    -13.13361530	     23.22317614	     47.30797886	      0.00000000	      0.00000000	     30.41509441	    -23.77407482	      2.26877831	     93.31515836	     47.62314058	      0.00000000	      0.00000000
     59.26800000	     -5.68452385	     -2.46154131	     -2.79445482	      0.99905294	      0.91058481	      0.47684174	     28.72832299	     -3.93295755	    -13.88776540	     18.39679655	     18.39679655	      0.50609610	      2.83520899	     -0.83210711	      0.05714093	     -5.87768300	    -10.76055849	     16.17696028	     16.17696028	     21.02973451	     -7.91498174	     -3.12795029	     -9.39492619	      3.82647962	      3.92999404	    -20.11422741	    -15.01182866	    -12.97870457	     23.05695230	     47.27683302	      0.00000000	      0.00000000	     30.57468378	    -23.52668879	      1.96072296	     94.56551314	     47.68458403	      0.00000000	      0.00000000
     59.27914286	     -5.66351973	     -2.74963596	     -2.80509212	      1.00078815	      0.90986751	      0.48030612	     28.73279533	     -3.52014386	    -13.61425443	     19.73318606	     19.73318606	      0.69590113	      2.11986295	     -1.61640675	      0.01306076	     -6.51711714	    -10.45837096	     17.43431537	     17.43431537	     21.14743506	     -8.65471151	     -2.90542941	     -9.47464725	      4.00525047	      4.12366423	    -20.93516442	    -14.81621564	    -12.92439402	     23.05354532	     47.25626715	      0.00000000	      0.00000000	     30.56234763	    -23.42658942	      1.63811658	     95.67205331	     47.73550509	      0.00000000	      0.00000000
     59.29028571	     -5.69340152	     -3.01503590	     -2.82180522	      1.00224231	      0.90929843	      0.48382729	     28.89476676	     -3.13093008	    -13.19135106	     21.27267359	     21.27267359	      0.97157062	      1.05477359	     -2.34493441	      0.34119952	     -7.18975974	    -10.04151904	     19.24903193	     19.24903193	     21.20415885	     -9.63215484	     -2.74275003	     -9.55482322	      4.19683343	      4.34914645	    -21.62139659	    -14.61564484	    -12.87779648	     23.20704133	     47.22999082	      0.00000000	      0.00000000	     30.37317148	    -23.24621504	      1.19003727	     97.09674003	     47.80031542	      0.00000000	      0.00000000
     59.30142857	     -5.75882072	     -3.27863939	     -2.84952679	      1.00356723	      0.90907399	      0.48753637	     28.97558157	     -2.66715760	    -12.64266834	     22.58295861	     22.58295861	      1.40641669	     -0.15629660	     -2.81550697	      0.90387135	     -7.91077148	     -9.61379894	     21.39366728	     21.39366728	     21.02003613	    -10.69430845	     -2.59346009	     -9.61279847	      4.36757374	      4.44962979	    -22.03606669	    -14.24897134	    -12.77930285	     23.61243058	     47.18695774	      0.00000000	      0.00000000	     29.65269842	    -23.14523813	      0.49965674	     98.63263438	     47.88395006	      0.00000000	      0.00000000
     59.31257143	     -5.70046403	     -3.56630982	     -2.83461536	      1.00477112	      0.90932361	      0.49122479	     28.82272294	     -2.21586315	    -12.31180332	     23.73794375	     23.73794375	      2.06537224	     -0.99834834	     -2.99667601	      1.54384211	     -8.69839458	     -9.17594127	     23.86797743	     23.86797743	     20.55564589	    -11.73419263	     -2.74197521	     -9.83454171	      4.53796743	      4.52757017	    -22.12169190	    -14.03727995	    -12.65391297	     23.86805647	     47.15501912	      0.00000000	      0.00000000	     29.04705521	    -22.99362886	     -0.11338128	     99.75984955	     47.95254009	      0.00000000	      0.00000000
     59.32371429	     -5.69443209	     -3.83253096	     -2.80734811	      1.00579386	      0.90979080	      0.49488870	     28.60157251	     -1.76704199	    -12.05850319	     24.62779038	     24.62779038	      2.84106376	     -1.70767840	     -2.88998240	      2.48369574	     -9.50597540	     -8.70707345	     26.70599516	     26.70599516	     19.73888963	    -12.83657581	     -3.09669523	    -10.02970588	      4.66960217	      4.55688564	    -21.97009226	    -13.79113677	    -12.47163729	     24.08961948	     47.12231763	      0.00000000	      0.00000000	     28.24084915	    -22.74897613	     -0.73507049	    100.78014036	     48.01869032	      0.00000000	      0.00000000
     59.33485714	     -5.63772119	     -4.11360473	     -2.73224675	      1.00668114	      0.91051980	      0.49848748	     28.20630552	     -1.32223318	    -11.97194289	     25.27519642	     25.27519642	      3.66724723	     -2.14535580	     -2.69028096	      3.59613016	    -10.35540050	     -8.15724020	     29.87115579	     29.87115579	     18.61234235	    -13.98616124	     -3.55395292	    -10.26238979	      4.81170781	      4.57751919	    -21.60085420	    -13.55698797	    -12.26249338	     24.25233161	     47.09376362	      0.00000000	      0.00000000	     27.41848699	    -22.45205839	     -1.26010730	    101.53631101	     48.07179820	      0.00000000	      0.00000000
     59.34600000	     -5.63841786	     -4.34257266	     -2.65940474	      1.00740495	      0.91140229	      0.50198119	     27.84866539	     -0.91432851	    -11.87354512	     25.87948906	     25.87948906	      5.15033444	     -2.29781405	     -0.39166310	      4.88517166	    -11.12277413	     -7.51511915	     33.07139559	     33.07139559	     16.57453211	    -15.50190122	     -5.25181895	    -10.45681640	      4.84972762	      3.53914810	    -20.29496678	    -13.70763026	    -10.95586024	     24.33661346	     46.95979820	      0.00000000	      0.00000000	     25.12638727	    -22.40426467	     -3.79907047	    103.68103881	     48.31342084	      0.00000000	      0.00000000
     59.35714286	     -5.54958456	     -4.62940450	     -2.52875049	      1.00801807	      0.91242167	      0.50534985	     27.18070826	     -0.50710229	    -12.18108168	     26.03350921	     26.03350921	      5.81265668	     -2.20864757	     -0.48476323	      6.34346507	    -11.99072628	     -6.85147212	     36.68671188	     36.68671188	     14.97685893	    -16.44444281	     -5.37018659	    -10.73281908	      4.93686396	      3.74329432	    -19.72666185	    -13.42775885	    -10.70450051	     24.38911955	     46.93770218	      0.00000000	      0.00000000	     24.49949275	    -21.89569198	     -3.64073628	    103.62640489	     48.30478957	      0.00000000	      0.00000000
     59.36828571	     -5.64131077	     -4.79426229	     -2.34244808	      1.00841479	      0.91326163	      0.50830368	     26.61923978	     -0.22328496	    -12.42223283	     25.95829310	     25.95829310	      6.47306299	     -2.05944289	     -0.42042926	      8.18702059	    -12.64526390	     -5.97404041	     40.44701421	     40.44701421	     13.21373223	    -17.30860846	     -5.25269142	    -10.72022164	      5.01508791	      3.90903181	    -18.95877195	    -13.16447772	    -10.34177118	     24.48826946	     46.90437205	      0.00000000	      0.00000000	     23.54255927	    -21.32388005	     -3.67226823	    103.50811141	     48.30825629	      0.00000000	      0.00000000
     59.37942857	     -5.67399243	     -4.95036211	     -2.14174787	      1.00865397	      0.91423817	      0.51101646	     26.02314472	      0.00322614	    -12.79604853	     25.95894211	     25.95894211	      7.44701901	     -1.64362039	      0.56704370	     10.16392437	    -13.16055505	     -4.88202833	     44.42056742	     44.42056742	     12.29847072	    -17.73491864	     -2.41177892	    -10.81188033	      5.02290518	      3.36782929	    -17.50286213	    -13.34422491	     -7.99862974	     24.20013574	     46.70067337	      0.00000000	      0.00000000	     21.89348535	    -20.84915461	     -4.81978018	    103.85996928	     48.44782826	      0.00000000	      0.00000000
